<mxfile host="Electron" modified="2024-06-11T11:29:45.576Z" agent="Mozilla/5.0 (Windows NT 10.0; Win64; x64) AppleWebKit/537.36 (KHTML, like Gecko) draw.io/24.4.13 Chrome/124.0.6367.207 Electron/30.0.6 Safari/537.36" etag="qYboyV5hVKN5PzqPbiFL" version="24.4.13" type="device">
  <diagram name="Page-1" id="6fXwkw4mov5lV1BdZa61">
    <mxGraphModel dx="1434" dy="836" grid="1" gridSize="5" guides="0" tooltips="1" connect="0" arrows="0" fold="1" page="1" pageScale="1" pageWidth="850" pageHeight="1100" math="0" shadow="0">
      <root>
        <mxCell id="0" />
        <mxCell id="1" parent="0" />
        <mxCell id="FAh_xGyPlavag0f4ykLB-20" value="" style="whiteSpace=wrap;html=1;aspect=fixed;fillColor=#CCFFCC;" parent="1" vertex="1">
          <mxGeometry x="180" y="320" width="280" height="280" as="geometry" />
        </mxCell>
        <mxCell id="FAh_xGyPlavag0f4ykLB-21" value="" style="whiteSpace=wrap;html=1;aspect=fixed;strokeColor=none;" parent="1" vertex="1">
          <mxGeometry x="220" y="360" width="200" height="200" as="geometry" />
        </mxCell>
        <mxCell id="FAh_xGyPlavag0f4ykLB-22" value="" style="endArrow=none;html=1;rounded=0;" parent="1" edge="1">
          <mxGeometry width="50" height="50" relative="1" as="geometry">
            <mxPoint x="220" y="600" as="sourcePoint" />
            <mxPoint x="220" y="320" as="targetPoint" />
          </mxGeometry>
        </mxCell>
        <mxCell id="FAh_xGyPlavag0f4ykLB-23" value="" style="endArrow=none;html=1;rounded=0;" parent="1" edge="1">
          <mxGeometry width="50" height="50" relative="1" as="geometry">
            <mxPoint x="260" y="600" as="sourcePoint" />
            <mxPoint x="260" y="320" as="targetPoint" />
          </mxGeometry>
        </mxCell>
        <mxCell id="FAh_xGyPlavag0f4ykLB-24" value="" style="endArrow=none;html=1;rounded=0;" parent="1" edge="1">
          <mxGeometry width="50" height="50" relative="1" as="geometry">
            <mxPoint x="300" y="600" as="sourcePoint" />
            <mxPoint x="300" y="320" as="targetPoint" />
          </mxGeometry>
        </mxCell>
        <mxCell id="FAh_xGyPlavag0f4ykLB-25" value="" style="endArrow=none;html=1;rounded=0;" parent="1" edge="1">
          <mxGeometry width="50" height="50" relative="1" as="geometry">
            <mxPoint x="340" y="600" as="sourcePoint" />
            <mxPoint x="340" y="320" as="targetPoint" />
          </mxGeometry>
        </mxCell>
        <mxCell id="FAh_xGyPlavag0f4ykLB-26" value="" style="endArrow=none;html=1;rounded=0;" parent="1" edge="1">
          <mxGeometry width="50" height="50" relative="1" as="geometry">
            <mxPoint x="380" y="600" as="sourcePoint" />
            <mxPoint x="380" y="320" as="targetPoint" />
          </mxGeometry>
        </mxCell>
        <mxCell id="FAh_xGyPlavag0f4ykLB-27" value="" style="endArrow=none;html=1;rounded=0;" parent="1" edge="1">
          <mxGeometry width="50" height="50" relative="1" as="geometry">
            <mxPoint x="420" y="600" as="sourcePoint" />
            <mxPoint x="420" y="320" as="targetPoint" />
          </mxGeometry>
        </mxCell>
        <mxCell id="FAh_xGyPlavag0f4ykLB-28" value="" style="endArrow=none;html=1;rounded=0;" parent="1" edge="1">
          <mxGeometry width="50" height="50" relative="1" as="geometry">
            <mxPoint x="180" y="360" as="sourcePoint" />
            <mxPoint x="460" y="360" as="targetPoint" />
          </mxGeometry>
        </mxCell>
        <mxCell id="FAh_xGyPlavag0f4ykLB-29" value="" style="endArrow=none;html=1;rounded=0;" parent="1" edge="1">
          <mxGeometry width="50" height="50" relative="1" as="geometry">
            <mxPoint x="180" y="400" as="sourcePoint" />
            <mxPoint x="460" y="400" as="targetPoint" />
          </mxGeometry>
        </mxCell>
        <mxCell id="FAh_xGyPlavag0f4ykLB-30" value="" style="endArrow=none;html=1;rounded=0;" parent="1" edge="1">
          <mxGeometry width="50" height="50" relative="1" as="geometry">
            <mxPoint x="180" y="440" as="sourcePoint" />
            <mxPoint x="460" y="440" as="targetPoint" />
          </mxGeometry>
        </mxCell>
        <mxCell id="FAh_xGyPlavag0f4ykLB-31" value="" style="endArrow=none;html=1;rounded=0;" parent="1" edge="1">
          <mxGeometry width="50" height="50" relative="1" as="geometry">
            <mxPoint x="180" y="480" as="sourcePoint" />
            <mxPoint x="460" y="480" as="targetPoint" />
          </mxGeometry>
        </mxCell>
        <mxCell id="FAh_xGyPlavag0f4ykLB-32" value="" style="endArrow=none;html=1;rounded=0;" parent="1" edge="1">
          <mxGeometry width="50" height="50" relative="1" as="geometry">
            <mxPoint x="180" y="520" as="sourcePoint" />
            <mxPoint x="460" y="520" as="targetPoint" />
          </mxGeometry>
        </mxCell>
        <mxCell id="FAh_xGyPlavag0f4ykLB-33" value="" style="endArrow=none;html=1;rounded=0;" parent="1" edge="1">
          <mxGeometry width="50" height="50" relative="1" as="geometry">
            <mxPoint x="180" y="560" as="sourcePoint" />
            <mxPoint x="460" y="560" as="targetPoint" />
          </mxGeometry>
        </mxCell>
        <mxCell id="FAh_xGyPlavag0f4ykLB-36" value="" style="ellipse;whiteSpace=wrap;html=1;aspect=fixed;strokeWidth=2;strokeColor=none;fillColor=#000000;" parent="1" vertex="1">
          <mxGeometry x="310" y="370" width="20" height="20" as="geometry" />
        </mxCell>
        <mxCell id="FAh_xGyPlavag0f4ykLB-38" value="" style="endArrow=classic;html=1;rounded=0;strokeWidth=2;strokeColor=#0000FF;" parent="1" edge="1">
          <mxGeometry width="50" height="50" relative="1" as="geometry">
            <mxPoint x="240" y="580" as="sourcePoint" />
            <mxPoint x="240" y="540" as="targetPoint" />
          </mxGeometry>
        </mxCell>
        <mxCell id="FAh_xGyPlavag0f4ykLB-39" value="" style="endArrow=classic;html=1;rounded=0;strokeWidth=2;strokeColor=#0000FF;" parent="1" edge="1">
          <mxGeometry width="50" height="50" relative="1" as="geometry">
            <mxPoint x="240" y="540" as="sourcePoint" />
            <mxPoint x="240" y="500" as="targetPoint" />
          </mxGeometry>
        </mxCell>
        <mxCell id="FAh_xGyPlavag0f4ykLB-40" value="" style="endArrow=classic;html=1;rounded=0;strokeWidth=2;strokeColor=#0000FF;" parent="1" edge="1">
          <mxGeometry width="50" height="50" relative="1" as="geometry">
            <mxPoint x="240" y="500" as="sourcePoint" />
            <mxPoint x="280" y="500" as="targetPoint" />
          </mxGeometry>
        </mxCell>
        <mxCell id="FAh_xGyPlavag0f4ykLB-41" value="" style="endArrow=classic;html=1;rounded=0;strokeWidth=2;strokeColor=#0000FF;" parent="1" edge="1">
          <mxGeometry width="50" height="50" relative="1" as="geometry">
            <mxPoint x="280" y="500" as="sourcePoint" />
            <mxPoint x="320" y="500" as="targetPoint" />
          </mxGeometry>
        </mxCell>
        <mxCell id="FAh_xGyPlavag0f4ykLB-42" value="" style="endArrow=classic;html=1;rounded=0;strokeWidth=2;strokeColor=#0000FF;" parent="1" edge="1">
          <mxGeometry width="50" height="50" relative="1" as="geometry">
            <mxPoint x="320" y="500" as="sourcePoint" />
            <mxPoint x="320" y="460" as="targetPoint" />
          </mxGeometry>
        </mxCell>
        <mxCell id="FAh_xGyPlavag0f4ykLB-44" value="" style="endArrow=classic;html=1;rounded=0;strokeWidth=2;strokeColor=#0000FF;" parent="1" edge="1">
          <mxGeometry width="50" height="50" relative="1" as="geometry">
            <mxPoint x="200" y="500" as="sourcePoint" />
            <mxPoint x="200" y="460" as="targetPoint" />
          </mxGeometry>
        </mxCell>
        <mxCell id="FAh_xGyPlavag0f4ykLB-45" value="" style="endArrow=classic;html=1;rounded=0;strokeWidth=2;strokeColor=#0000FF;" parent="1" edge="1">
          <mxGeometry width="50" height="50" relative="1" as="geometry">
            <mxPoint x="200" y="420" as="sourcePoint" />
            <mxPoint x="200" y="380" as="targetPoint" />
          </mxGeometry>
        </mxCell>
        <mxCell id="FAh_xGyPlavag0f4ykLB-49" value="" style="endArrow=classic;html=1;rounded=0;strokeWidth=2;strokeColor=#0000FF;" parent="1" edge="1">
          <mxGeometry width="50" height="50" relative="1" as="geometry">
            <mxPoint x="440" y="540" as="sourcePoint" />
            <mxPoint x="400" y="540" as="targetPoint" />
          </mxGeometry>
        </mxCell>
        <mxCell id="FAh_xGyPlavag0f4ykLB-50" value="" style="endArrow=classic;html=1;rounded=0;strokeWidth=2;strokeColor=#0000FF;" parent="1" edge="1">
          <mxGeometry width="50" height="50" relative="1" as="geometry">
            <mxPoint x="440" y="420" as="sourcePoint" />
            <mxPoint x="440" y="460" as="targetPoint" />
          </mxGeometry>
        </mxCell>
        <mxCell id="FAh_xGyPlavag0f4ykLB-51" value="" style="endArrow=classic;html=1;rounded=0;strokeWidth=2;strokeColor=#0000FF;" parent="1" edge="1">
          <mxGeometry width="50" height="50" relative="1" as="geometry">
            <mxPoint x="440" y="460" as="sourcePoint" />
            <mxPoint x="440" y="500" as="targetPoint" />
          </mxGeometry>
        </mxCell>
        <mxCell id="FAh_xGyPlavag0f4ykLB-52" value="" style="endArrow=classic;html=1;rounded=0;strokeWidth=2;strokeColor=#0000FF;" parent="1" edge="1">
          <mxGeometry width="50" height="50" relative="1" as="geometry">
            <mxPoint x="440" y="500" as="sourcePoint" />
            <mxPoint x="440" y="540" as="targetPoint" />
          </mxGeometry>
        </mxCell>
        <mxCell id="FAh_xGyPlavag0f4ykLB-55" value="" style="endArrow=classic;html=1;rounded=0;strokeWidth=2;strokeColor=#0000FF;" parent="1" edge="1">
          <mxGeometry width="50" height="50" relative="1" as="geometry">
            <mxPoint x="240" y="500" as="sourcePoint" />
            <mxPoint x="200" y="500" as="targetPoint" />
          </mxGeometry>
        </mxCell>
        <mxCell id="FAh_xGyPlavag0f4ykLB-56" value="" style="endArrow=classic;html=1;rounded=0;strokeWidth=2;strokeColor=#0000FF;" parent="1" edge="1">
          <mxGeometry width="50" height="50" relative="1" as="geometry">
            <mxPoint x="320" y="460" as="sourcePoint" />
            <mxPoint x="280" y="460" as="targetPoint" />
          </mxGeometry>
        </mxCell>
        <mxCell id="FAh_xGyPlavag0f4ykLB-57" value="" style="endArrow=classic;html=1;rounded=0;strokeWidth=2;strokeColor=#0000FF;" parent="1" edge="1">
          <mxGeometry width="50" height="50" relative="1" as="geometry">
            <mxPoint x="280" y="420" as="sourcePoint" />
            <mxPoint x="280" y="380" as="targetPoint" />
          </mxGeometry>
        </mxCell>
        <mxCell id="FAh_xGyPlavag0f4ykLB-58" value="" style="endArrow=classic;html=1;rounded=0;strokeWidth=2;strokeColor=#0000FF;" parent="1" edge="1">
          <mxGeometry width="50" height="50" relative="1" as="geometry">
            <mxPoint x="280" y="380" as="sourcePoint" />
            <mxPoint x="310" y="380" as="targetPoint" />
          </mxGeometry>
        </mxCell>
        <mxCell id="FAh_xGyPlavag0f4ykLB-59" value="" style="endArrow=classic;html=1;rounded=0;strokeWidth=2;strokeColor=#0000FF;" parent="1" edge="1">
          <mxGeometry width="50" height="50" relative="1" as="geometry">
            <mxPoint x="200" y="380" as="sourcePoint" />
            <mxPoint x="240" y="380" as="targetPoint" />
          </mxGeometry>
        </mxCell>
        <mxCell id="FAh_xGyPlavag0f4ykLB-60" value="" style="endArrow=classic;html=1;rounded=0;strokeWidth=2;strokeColor=#0000FF;" parent="1" edge="1">
          <mxGeometry width="50" height="50" relative="1" as="geometry">
            <mxPoint x="240" y="380" as="sourcePoint" />
            <mxPoint x="280" y="380" as="targetPoint" />
          </mxGeometry>
        </mxCell>
        <mxCell id="FAh_xGyPlavag0f4ykLB-65" value="" style="endArrow=classic;html=1;rounded=0;strokeWidth=2;strokeColor=#0000FF;" parent="1" edge="1">
          <mxGeometry width="50" height="50" relative="1" as="geometry">
            <mxPoint x="400" y="540" as="sourcePoint" />
            <mxPoint x="360" y="540" as="targetPoint" />
          </mxGeometry>
        </mxCell>
        <mxCell id="FAh_xGyPlavag0f4ykLB-66" value="" style="endArrow=classic;html=1;rounded=0;strokeWidth=2;strokeColor=#0000FF;" parent="1" edge="1">
          <mxGeometry width="50" height="50" relative="1" as="geometry">
            <mxPoint x="360" y="540" as="sourcePoint" />
            <mxPoint x="320" y="540" as="targetPoint" />
          </mxGeometry>
        </mxCell>
        <mxCell id="FAh_xGyPlavag0f4ykLB-67" value="" style="endArrow=classic;html=1;rounded=0;strokeWidth=2;strokeColor=#0000FF;" parent="1" edge="1">
          <mxGeometry width="50" height="50" relative="1" as="geometry">
            <mxPoint x="320" y="540" as="sourcePoint" />
            <mxPoint x="320" y="500" as="targetPoint" />
          </mxGeometry>
        </mxCell>
        <mxCell id="FAh_xGyPlavag0f4ykLB-68" value="" style="endArrow=classic;html=1;rounded=0;strokeWidth=2;strokeColor=#FF0000;" parent="1" edge="1">
          <mxGeometry width="50" height="50" relative="1" as="geometry">
            <mxPoint x="320" y="500" as="sourcePoint" />
            <mxPoint x="360" y="500" as="targetPoint" />
          </mxGeometry>
        </mxCell>
        <mxCell id="FAh_xGyPlavag0f4ykLB-69" value="" style="endArrow=classic;html=1;rounded=0;strokeWidth=2;strokeColor=#FF0000;" parent="1" edge="1">
          <mxGeometry width="50" height="50" relative="1" as="geometry">
            <mxPoint x="360" y="500" as="sourcePoint" />
            <mxPoint x="360" y="460" as="targetPoint" />
          </mxGeometry>
        </mxCell>
        <mxCell id="FAh_xGyPlavag0f4ykLB-70" value="" style="endArrow=classic;html=1;rounded=0;strokeWidth=2;strokeColor=#FF0000;" parent="1" edge="1">
          <mxGeometry width="50" height="50" relative="1" as="geometry">
            <mxPoint x="360" y="420" as="sourcePoint" />
            <mxPoint x="360" y="380" as="targetPoint" />
          </mxGeometry>
        </mxCell>
        <mxCell id="FAh_xGyPlavag0f4ykLB-71" value="" style="endArrow=classic;html=1;rounded=0;strokeWidth=2;strokeColor=#FF0000;" parent="1" edge="1">
          <mxGeometry width="50" height="50" relative="1" as="geometry">
            <mxPoint x="360" y="380" as="sourcePoint" />
            <mxPoint x="330" y="380" as="targetPoint" />
          </mxGeometry>
        </mxCell>
        <mxCell id="FAh_xGyPlavag0f4ykLB-72" value="" style="endArrow=classic;html=1;rounded=0;strokeWidth=2;strokeColor=#FF0000;" parent="1" edge="1">
          <mxGeometry width="50" height="50" relative="1" as="geometry">
            <mxPoint x="360" y="460" as="sourcePoint" />
            <mxPoint x="360" y="420" as="targetPoint" />
          </mxGeometry>
        </mxCell>
        <mxCell id="FAh_xGyPlavag0f4ykLB-73" value="" style="endArrow=classic;html=1;rounded=0;strokeWidth=2;strokeColor=#0000FF;" parent="1" edge="1">
          <mxGeometry width="50" height="50" relative="1" as="geometry">
            <mxPoint x="280" y="460" as="sourcePoint" />
            <mxPoint x="280" y="420" as="targetPoint" />
          </mxGeometry>
        </mxCell>
        <mxCell id="FAh_xGyPlavag0f4ykLB-74" value="" style="endArrow=classic;html=1;rounded=0;strokeWidth=2;strokeColor=#0000FF;" parent="1" edge="1">
          <mxGeometry width="50" height="50" relative="1" as="geometry">
            <mxPoint x="200" y="460" as="sourcePoint" />
            <mxPoint x="200" y="420" as="targetPoint" />
          </mxGeometry>
        </mxCell>
        <mxCell id="FAh_xGyPlavag0f4ykLB-34" value="" style="ellipse;whiteSpace=wrap;html=1;aspect=fixed;strokeWidth=2;strokeColor=#FF0000;" parent="1" vertex="1">
          <mxGeometry x="230" y="570" width="20" height="20" as="geometry" />
        </mxCell>
        <mxCell id="FAh_xGyPlavag0f4ykLB-35" value="" style="ellipse;whiteSpace=wrap;html=1;aspect=fixed;strokeWidth=2;strokeColor=#FF0000;" parent="1" vertex="1">
          <mxGeometry x="430" y="410" width="20" height="20" as="geometry" />
        </mxCell>
        <mxCell id="FAh_xGyPlavag0f4ykLB-77" value="" style="whiteSpace=wrap;html=1;aspect=fixed;" parent="1" vertex="1">
          <mxGeometry x="540" y="380" width="20" height="20" as="geometry" />
        </mxCell>
        <mxCell id="FAh_xGyPlavag0f4ykLB-79" value="Tile" style="text;html=1;align=left;verticalAlign=middle;whiteSpace=wrap;rounded=0;fontFamily=&quot;Latin Mono Regular 12&quot;;fontSize=12;" parent="1" vertex="1">
          <mxGeometry x="580" y="380" width="80" height="20" as="geometry" />
        </mxCell>
        <mxCell id="FAh_xGyPlavag0f4ykLB-80" value="Legend:" style="text;html=1;align=center;verticalAlign=middle;whiteSpace=wrap;rounded=0;fontFamily=&quot;Latin Mono Regular 12&quot;;fontSize=16;" parent="1" vertex="1">
          <mxGeometry x="540" y="340" width="120" height="40" as="geometry" />
        </mxCell>
        <mxCell id="FAh_xGyPlavag0f4ykLB-81" value="" style="whiteSpace=wrap;html=1;aspect=fixed;fillColor=#CCFFCC;" parent="1" vertex="1">
          <mxGeometry x="540" y="410" width="20" height="20" as="geometry" />
        </mxCell>
        <mxCell id="FAh_xGyPlavag0f4ykLB-82" value="Edge tile" style="text;html=1;align=left;verticalAlign=middle;whiteSpace=wrap;rounded=0;fontFamily=&quot;Latin Mono Regular 12&quot;;fontSize=12;" parent="1" vertex="1">
          <mxGeometry x="580" y="410" width="80" height="20" as="geometry" />
        </mxCell>
        <mxCell id="FAh_xGyPlavag0f4ykLB-83" value="" style="ellipse;whiteSpace=wrap;html=1;aspect=fixed;strokeWidth=2;strokeColor=none;fillColor=#000000;" parent="1" vertex="1">
          <mxGeometry x="542" y="442" width="16" height="16" as="geometry" />
        </mxCell>
        <mxCell id="FAh_xGyPlavag0f4ykLB-84" value="The Hub" style="text;html=1;align=left;verticalAlign=middle;whiteSpace=wrap;rounded=0;fontFamily=&quot;Latin Mono Regular 12&quot;;fontSize=12;" parent="1" vertex="1">
          <mxGeometry x="580" y="440" width="80" height="20" as="geometry" />
        </mxCell>
        <mxCell id="FAh_xGyPlavag0f4ykLB-85" value="" style="ellipse;whiteSpace=wrap;html=1;aspect=fixed;strokeWidth=2;strokeColor=#FF0000;" parent="1" vertex="1">
          <mxGeometry x="542" y="472" width="16" height="16" as="geometry" />
        </mxCell>
        <mxCell id="FAh_xGyPlavag0f4ykLB-86" value="Path start" style="text;html=1;align=left;verticalAlign=middle;whiteSpace=wrap;rounded=0;fontFamily=&quot;Latin Mono Regular 12&quot;;fontSize=12;" parent="1" vertex="1">
          <mxGeometry x="580" y="470" width="80" height="20" as="geometry" />
        </mxCell>
        <mxCell id="FAh_xGyPlavag0f4ykLB-87" value="" style="endArrow=classic;html=1;rounded=0;strokeWidth=2;strokeColor=#0000FF;" parent="1" edge="1">
          <mxGeometry width="50" height="50" relative="1" as="geometry">
            <mxPoint x="535" y="510" as="sourcePoint" />
            <mxPoint x="565" y="510" as="targetPoint" />
          </mxGeometry>
        </mxCell>
        <mxCell id="FAh_xGyPlavag0f4ykLB-88" value="Path segment" style="text;html=1;align=left;verticalAlign=middle;whiteSpace=wrap;rounded=0;fontFamily=&quot;Latin Mono Regular 12&quot;;fontSize=12;" parent="1" vertex="1">
          <mxGeometry x="580" y="500" width="80" height="20" as="geometry" />
        </mxCell>
        <mxCell id="FAh_xGyPlavag0f4ykLB-89" value="" style="endArrow=classic;html=1;rounded=0;strokeWidth=2;strokeColor=#FF0000;endSize=0;startSize=6;" parent="1" edge="1">
          <mxGeometry width="50" height="50" relative="1" as="geometry">
            <mxPoint x="535" y="545" as="sourcePoint" />
            <mxPoint x="545" y="545" as="targetPoint" />
          </mxGeometry>
        </mxCell>
        <mxCell id="FAh_xGyPlavag0f4ykLB-90" value="" style="endArrow=classic;html=1;rounded=0;strokeWidth=2;strokeColor=#FF0000;endSize=0;startSize=6;" parent="1" edge="1">
          <mxGeometry width="50" height="50" relative="1" as="geometry">
            <mxPoint x="545" y="545" as="sourcePoint" />
            <mxPoint x="555" y="545" as="targetPoint" />
          </mxGeometry>
        </mxCell>
        <mxCell id="FAh_xGyPlavag0f4ykLB-91" value="" style="endArrow=classic;html=1;rounded=0;strokeWidth=2;strokeColor=#FF0000;endSize=0;startSize=6;" parent="1" edge="1">
          <mxGeometry width="50" height="50" relative="1" as="geometry">
            <mxPoint x="555" y="545" as="sourcePoint" />
            <mxPoint x="565" y="545" as="targetPoint" />
          </mxGeometry>
        </mxCell>
        <mxCell id="FAh_xGyPlavag0f4ykLB-92" value="Example of a branch" style="text;html=1;align=left;verticalAlign=middle;whiteSpace=wrap;rounded=0;fontFamily=&quot;Latin Mono Regular 12&quot;;fontSize=12;" parent="1" vertex="1">
          <mxGeometry x="580" y="530" width="80" height="30" as="geometry" />
        </mxCell>
      </root>
    </mxGraphModel>
  </diagram>
</mxfile>
